<?xml version="1.0" encoding="UTF-8"?><svg id="a" xmlns="http://www.w3.org/2000/svg" viewBox="0 0 414.53 468.07"><defs><style>.g{fill:#fff;}.h{fill:#f5f5f5;}.i{fill:#455a64;}.j{opacity:.8;}.k{fill:#e0e0e0;}.l{fill:#ff725e;}.m{opacity:.3;}.n{fill:#ebebeb;}.o{opacity:.2;}.p{fill:#263238;}</style></defs><g id="b"><path class="k" d="M89.54,343.1c-2-2.1-4.95-2.9-7.67-3.9-21.36-7.87-32.29-31.56-24.42-52.92,1.35-3.67,3.22-7.12,5.54-10.26l-.41-2.11c-.93-9.86-12.83-16.92-21.93-13s-12.18,17.37-5.68,24.85c-10.67,.88-17.73,13-16.22,23.65s9.26,19.3,17.9,25.63c14.3,10.43,31.51,16.11,49.21,16.26,1.2,.1,2.41-.11,3.5-.63,2.5-1.47,2.18-5.46,.18-7.57Z"/><path class="k" d="M386.89,299.97c2.45-4,2.8-9.35,.31-13.31s-7.95-5.95-12.2-4c2.61-4.19,1.33-9.7-2.86-12.3-4.19-2.61-9.7-1.33-12.3,2.85-2.84,4.39-1.34,10.28,1.1,14.91s5.79,9,6.59,14.13-1.2,10.68-4.36,15-7.37,7.7-11.54,11l-.79,.76c7.61,2.59,15.95,1.86,23-2,3.92-2.17,7.55-5.76,7.81-10.23,.14-2.5-.79-5-.41-7.48,.51-3.54,3.71-6.18,5.65-9.33Z"/><path class="k" d="M171.84,463.45c-3.89-.48-7.79-2.18-10.08-5.36-1.46-2-2.17-4.52-3.44-6.68s-3.48-4.11-6-3.87c-3.86,.38-6.47,5.72-10.24,4.78-2.26-.57-3.34-3.23-3.35-5.56s.66-4.66,.37-7c-.81-6.51-9.17-9.71-15.41-7.67s-15.7,9.55-19.77,14.7c4.28,7.11,13.05,9.87,21.09,11.89,13.5,3.38,27.12,6.25,40.85,8.61,3.22,.55,6.51,1.08,9.73,.57s6.43-2.22,7.92-5.12c-3.82,.61-7.82,1.2-11.67,.71Z"/><path class="k" d="M326.69,413.31c-1-5.56-6.54-10.46-12-9.18,4.56-3.76,4.59-11.32,1-16s-9.88-6.71-15.79-6.53-11.58,2.25-17.06,4.45c2.69-3.42-1.25-8.76-5.59-9s-8.23,2.47-11.76,5-7.59,5.16-11.89,4.49l4,1.62c9.65,1.46,19.38,3.71,27.73,8.75s15.24,13.26,16.68,22.91-3.64,20.45-12.79,23.83c12.56,.66,24.67-4.81,32.47-14.68,3.44-4.46,6-10.11,5-15.66Z"/><path class="k" d="M9.62,269.11c-.26-3.1-.34-6.2-.26-9.31-.08-3.11,0-6.22,.26-9.32,.26,3.1,.35,6.21,.26,9.32,.09,3.11,0,6.21-.26,9.31Z"/><path class="k" d="M19.25,259.76c-3.2,.26-6.42,.34-9.63,.26-3.21,.08-6.42,0-9.62-.26,3.2-.26,6.41-.35,9.62-.26,3.21-.09,6.43,0,9.63,.26Z"/><path class="k" d="M381.11,364.85c-.26-3.1-.35-6.2-.26-9.31-.09-3.11,0-6.22,.26-9.32,.26,3.1,.34,6.21,.26,9.32,.08,3.11,0,6.21-.26,9.31Z"/><path class="k" d="M390.74,355.53c-3.2,.27-6.42,.36-9.63,.27-3.21,.09-6.43,0-9.63-.27,3.2-.26,6.42-.34,9.63-.26,3.21-.08,6.43,0,9.63,.26Z"/><path class="k" d="M324.6,45.21c-.26-3.1-.35-6.21-.26-9.32-.09-3.11,0-6.21,.26-9.31,.26,3.1,.34,6.2,.26,9.31,.08,3.11,0,6.22-.26,9.32Z"/><path class="k" d="M334.23,35.89c-3.2,.26-6.42,.35-9.63,.26-3.21,.09-6.43,0-9.63-.26,3.2-.26,6.42-.34,9.63-.26,3.21-.08,6.43,0,9.63,.26Z"/><circle class="k" cx="20.34" cy="181.61" r="5.69"/><path class="k" d="M247.45,424c0,3.15-2.54,5.7-5.69,5.71-3.15,0-5.7-2.54-5.71-5.69s2.54-5.7,5.69-5.71h0c3.14,0,5.69,2.54,5.7,5.68h0Z"/><path class="k" d="M300.41,316.44c0,3.14-2.54,5.69-5.68,5.7-3.14,0-5.69-2.54-5.7-5.68,0-3.13,2.53-5.68,5.66-5.7,3.14-.02,5.7,2.52,5.72,5.66v.02Z"/><path class="k" d="M131.3,33.02c0,3.14-2.55,5.69-5.69,5.69s-5.69-2.55-5.69-5.69,2.55-5.69,5.69-5.69,5.69,2.55,5.69,5.69h0Z"/><circle class="k" cx="155.42" cy="369.73" r="2.85"/><path class="k" d="M89.6,355.53c0,1.57-1.27,2.85-2.84,2.86-1.57,0-2.85-1.27-2.86-2.84,0-1.57,1.27-2.85,2.84-2.86h0c1.57,0,2.84,1.26,2.85,2.83h0Z"/><path class="k" d="M159.76,38.76c0,1.57-1.28,2.85-2.85,2.85s-2.85-1.28-2.85-2.85,1.28-2.85,2.85-2.85c1.57,0,2.84,1.28,2.85,2.85Z"/><path class="k" d="M285.12,192.7c0,1.57-1.28,2.85-2.85,2.85s-2.85-1.28-2.85-2.85c0-1.57,1.28-2.85,2.85-2.85s2.85,1.28,2.85,2.85h0Z"/><path class="n" d="M11.82,30.26s-6.34,3.27,2.54,16.55c8.88,13.28,14.7,19.68,14.7,19.68,0,0,1.67,3.13-1,4s-8.89,.59-9.72,4.11,2.07,6.66,7.58,9,17.33,7.66,18.41,8.16,2.21,1.89,.46,2.76-15.25,3.91-13.42,10.24,18.21,10.18,20,10.64,2.28,1.13,2.25,2.08-4.67,1.55-8.47,2.57-8,2.88-6.68,6.44,11.57,10.16,34.42,9.7l10.57-.9,4.68-9.58c8.77-21.1,6.35-33,3.53-35.59s-6.09,.7-8.43,3.87-4.59,7.27-5.49,7-1.34-1-1.11-2.86,2.61-18.48-2.61-22.49-13,7.45-14.43,8.77-2.33-.29-2.4-1.45-.83-14.28-.95-20.2-1.85-9.83-5.56-10.36-5.62,5.36-7.38,7.55-4.07-.48-4.07-.48c0,0-3.84-7.76-13-20.87s-14.55-8.26-14.55-8.26"/><path class="k" d="M84.29,137.69c-6.66-9.65-18.2-27-28.2-41.87s-19-28.28-25.65-38l-7.84-11.44c-.92-1.34-1.63-2.39-2.13-3.11-.23-.36-.42-.63-.55-.82s-.17-.29-.17-.29l.2,.27,.58,.8,2.16,3.08c1.89,2.68,4.59,6.58,7.92,11.41,6.68,9.65,15.77,23.04,25.76,37.92s21.51,32.23,28.12,41.92"/><path class="k" d="M26.95,75.26c.26,.01,.51,.05,.76,.12,.48,.09,1.18,.25,2,.46,1.71,.4,4.07,1,6.65,1.76l6.62,1.91,2,.57c.25,.04,.5,.12,.73,.24-.26-.01-.51-.05-.76-.12-.48-.09-1.18-.25-2-.46-1.71-.43-4.06-1.08-6.65-1.82l-6.61-1.86-2-.56c-.25-.05-.5-.13-.74-.24Z"/><path class="k" d="M46.39,79.56c-.08,0,1-4.93,2.4-11s2.64-10.92,2.72-10.9-1,4.94-2.4,11-2.63,10.92-2.72,10.9Z"/><path class="k" d="M60.69,103.06c.09-.25,.2-.48,.35-.7l1-1.86c.88-1.57,2.09-3.74,3.34-6.18s2.3-4.69,3-6.32l.89-1.94c.09-.24,.21-.47,.36-.69-.05,.26-.13,.5-.24,.74-.18,.48-.45,1.15-.8,2-.69,1.66-1.72,3.93-3,6.38s-2.49,4.61-3.42,6.15c-.47,.77-.86,1.38-1.14,1.8-.09,.22-.21,.42-.34,.62Z"/><path class="k" d="M42.27,103.04c.24-.05,.48-.08,.72-.07l2-.08c1.67,0,4-.09,6.5-.12s4.83,0,6.49,0h2c.24-.03,.48-.03,.72,0-.24,.05-.48,.08-.72,.07l-2,.08c-1.67,.05-4,.1-6.5,.13s-4.83,0-6.49,0h-2c-.24,.02-.48,.02-.72,0Z"/><path class="k" d="M52.27,125.39c.3-.05,.61-.08,.92-.08l2.52-.11c2.13-.08,5.07-.16,8.32-.23s6.19-.11,8.32-.13h2.53c.31-.02,.61-.02,.92,0-.3,.07-.61,.1-.92,.09l-2.52,.1c-2.13,.08-5.07,.16-8.32,.23s-6.19,.12-8.33,.13h-2.52c-.31,.03-.61,.03-.92,0Z"/><path class="k" d="M75.24,124.76c.11-.31,.25-.61,.42-.9l1.24-2.4c1.05-2,2.48-4.83,4-8s2.78-6,3.69-8.1l1.09-2.48c.12-.31,.26-.61,.43-.89-.08,.32-.18,.64-.31,.94-.23,.6-.56,1.46-1,2.52-.86,2.11-2.11,5-3.62,8.16-1.51,3.16-3,5.94-4.06,7.94-.56,1-1,1.8-1.34,2.35-.15,.3-.33,.59-.54,.86Z"/><path class="h" d="M355.19,220.76c-11.27-9.83-12.34-25.93-10.32-40.09,.33-2.37,.34-4.9,1.7-6.86s4.14-3.1,6.15-1.87c1.67,1,2.22,3.15,3,5,1.08,2.4,2.81,4.45,5,5.91,1.43,.95,3.25,1.63,4.83,1,2.17-.9,2.71-3.7,2.95-6.07,.45-4.4,.9-8.8,1.34-13.2,.11-2.37,.61-4.71,1.47-6.93,.88-2.23,2.8-3.89,5.13-4.45,2.31-.39,4.95,1.21,5.17,3.57-.01,.98-.1,1.97-.25,2.94-.14,1,.33,1.98,1.2,2.49,.98,.23,2.01-.07,2.71-.8,2.6-2.26,4.81-4.93,6.55-7.9,1.74-2.97,3.82-5.72,6.2-8.2,2.49-2.36,5.77-4.09,9.17-3.92s6.77,2.65,7.27,6-1.81,6.59-4.21,9.05c-3.56,3.66-7.63,6.78-12.09,9.27-.85,.36-1.57,.99-2.05,1.78-.68,1.52,.64,3.24,2.14,3.92,1.69,.78,3.62,.8,5.44,1.22s3.72,1.44,4.23,3.25c.71,2.52-1.58,4.83-3.75,6.27-4.33,2.89-9.13,5.01-14.18,6.27-1.84,.3-3.61,.94-5.22,1.88-1.53,1.06-2.61,3.09-1.94,4.85s2.78,2.52,4.64,2.38c1.83-.32,3.64-.8,5.39-1.42,3.37-.88,7.53-.2,9.31,2.82,1.07,2.1,1.1,4.57,.08,6.69-1.02,2.08-2.45,3.93-4.2,5.45-5.81,5.61-13,9.59-20.84,11.52-7.8,1.8-14.85,1.75-22-1.79"/><path class="k" d="M359.82,212.23c3.2-7.49,6.83-14.79,10.87-21.86l3.14-5.58c1-1.83,2.06-3.64,3.17-5.36,2.16-3.29,4.5-6.45,7-9.48,2.36-2.9,4.7-5.58,6.91-8.06s4.33-4.75,6.34-6.74c3.16-3.16,6.56-6.06,10.17-8.68,1.28-.92,2.3-1.61,3-2.06l.79-.52,.28-.16c-.07,.08-.16,.14-.25,.2l-.77,.55c-.68,.48-1.68,1.19-2.94,2.13-3.57,2.67-6.93,5.6-10.06,8.76-2,2-4.08,4.28-6.28,6.76s-4.53,5.17-6.87,8.08c-2.48,3.02-4.78,6.18-6.91,9.46-1.1,1.7-2.12,3.5-3.15,5.34l-3.14,5.58c-4.02,7.06-7.64,14.34-10.85,21.8"/><path class="k" d="M377.1,179.43c-.07-.33-.11-.66-.12-1-.06-.67-.1-1.63-.14-2.83-.08-2.38-.08-5.68-.07-9.31s0-6.93-.14-9.31c-.06-1.19-.11-2.15-.16-2.81-.03-.33-.03-.67,0-1,.1,.33,.16,.66,.19,1,.1,.66,.2,1.62,.29,2.81,.2,2.38,.3,5.68,.28,9.33s0,6.83-.06,9.31v2.82c0,.33-.02,.66-.07,.99Z"/><path class="k" d="M408.04,177.03c-.41,.04-.81,.04-1.22,0h-3.33c-2.81,0-6.69,.14-11,.48s-8.14,.82-10.92,1.25c-1.39,.2-2.51,.4-3.29,.53-.4,.09-.8,.14-1.21,.16,.38-.15,.78-.26,1.18-.33,.77-.18,1.89-.43,3.28-.67,2.77-.51,6.64-1,10.93-1.38,3.66-.3,7.33-.42,11-.35,1.41,0,2.55,.1,3.34,.17,.42,0,.83,.05,1.24,.14Z"/><path class="k" d="M360.25,211.76c-.07-.12-.13-.25-.17-.39-.1-.31-.24-.69-.4-1.15-.34-1-.8-2.47-1.34-4.29-1.09-3.63-2.44-8.69-3.85-14.3s-2.71-10.69-3.72-14.34c-.49-1.77-.9-3.23-1.21-4.32-.13-.47-.23-.86-.32-1.18-.04-.14-.08-.28-.09-.42,.08,.12,.14,.26,.17,.4l.4,1.15c.35,1,.81,2.47,1.35,4.28,1.09,3.64,2.43,8.7,3.84,14.31s2.71,10.68,3.72,14.34c.5,1.77,.91,3.23,1.21,4.32l.33,1.17c.05,.13,.08,.28,.08,.42Z"/><path class="k" d="M401.96,203.07c-.14,.05-.28,.09-.42,.12l-1.21,.26-4.47,.94c-3.77,.79-9,1.94-14.71,3.21s-10.95,2.39-14.74,3.1c-1.9,.35-3.43,.63-4.5,.79l-1.23,.19c-.14,.03-.29,.03-.43,0l.42-.12,1.21-.26,4.47-.94c3.77-.79,9-1.94,14.71-3.22s10.95-2.38,14.74-3.09c1.9-.36,3.43-.63,4.5-.79l1.23-.19c.14-.03,.29-.03,.43,0Z"/><path class="k" d="M268.32,51.76c1.81-10.42,6.78-25.65,12.73-34.39S296.17,1.76,306.69,.26s22,3.5,26.7,12.93c2.53,5.07,3,10.91,4.84,16.26s5.88,10.72,11.53,11.15c5,.39,9.83-3.22,14.75-2.26,6.42,1.25,8.89,9.15,8.93,15.68s-.9,13.79,3.12,18.94c3.28,4.22,8.91,5.67,13.44,8.5,9.81,6.12,14,18.75,13,30.27s-6.3,22.18-11.93,32.27c-4.69-16.57-11.05-32.61-19-47.88-4.55-8.72-12.86-16.13-20.21-22.66-11.29-10-36.06-14.81-51.05-16.65s-17.63-2.24-32.46-5"/></g><g id="c"><path class="l" d="M168.4,64.06c-37.07,2.69-77.55,7.6-107.23,19l9.38,63.43s57.52-20.59,104.33-19.16l-6.48-63.27Z"/><g class="j"><path class="g" d="M168.4,64.06c-37.07,2.69-77.55,7.6-107.23,19l9.38,63.43s57.52-20.59,104.33-19.16l-6.48-63.27Z"/></g><path class="l" d="M165.69,118.96l-.36,.06-1.05,.15-4,.5c-1.76,.21-3.91,.47-6.4,.83s-5.33,.72-8.45,1.24c-12.51,1.93-29.73,5.12-48.43,10-6.5,1.68-12.77,3.41-18.5,5.21l-.29,.08v-.29c-2-14.54-3.94-27.08-5.43-36-.76-4.42-1.37-8-1.79-10.41-.21-1.19-.37-2.12-.49-2.78,0-.3-.08-.54-.11-.72-.01-.08-.01-.17,0-.25,.03,.08,.06,.16,.07,.24,0,.18,.09,.42,.16,.71,.13,.66,.32,1.58,.57,2.77,.48,2.41,1.15,5.94,1.93,10.38,1.58,8.88,3.58,21.42,5.62,36l-.33-.2c5.75-1.82,12-3.56,18.53-5.24,15.98-4.12,32.17-7.4,48.5-9.82,3.13-.49,6-.82,8.47-1.15s4.65-.57,6.41-.75l4.06-.41,1.06-.09c.08-.03,.16-.05,.25-.06Z"/><path class="l" d="M166.99,103.54s-.14-.44-.43-1.27c-.48-1.18-1.12-2.28-1.91-3.27-1.25-1.58-2.77-2.92-4.5-3.95-.48-.32-1.05-.56-1.6-.85-.59-.26-1.19-.47-1.81-.65-1.33-.42-2.74-.56-4.13-.4-1.52,.17-2.97,.74-4.2,1.65-1.33,1.01-2.46,2.25-3.36,3.65-2,2.89-3.21,6.41-4.71,10.06-.73,1.93-1.93,3.65-3.49,5-.83,.7-1.83,1.17-2.89,1.39-1.1,.19-2.23,.05-3.26-.38-4.22-1.67-6.1-6.54-10.37-8-2.1-.67-4.37-.48-6.33,.52-.96,.47-1.81,1.13-2.51,1.94-.66,.82-1.22,1.72-1.67,2.68-.95,1.88-1.67,4-3.28,5.45-.79,.74-1.8,1.19-2.88,1.29-1.04,.06-2.08-.16-3-.64-1.72-.96-3.15-2.36-4.14-4.07-.86-1.61-1.59-3.28-2.19-5-.56-1.58-1.29-3.09-2.17-4.51-.82-1.29-1.96-2.35-3.31-3.08-2.36-1.25-5.17-1.33-7.6-.22-1.86,.77-3.51,1.96-4.83,3.48-.82,.97-1.44,2.1-1.81,3.31-.26,.83-.29,1.3-.33,1.29,.02-.45,.1-.89,.23-1.32,.33-1.25,.93-2.41,1.75-3.41,1.32-1.57,2.98-2.81,4.87-3.62,2.51-1.18,5.43-1.12,7.89,.17,1.41,.75,2.61,1.84,3.48,3.18,.91,1.44,1.65,2.98,2.23,4.58,.61,1.69,1.34,3.33,2.19,4.91,.95,1.64,2.34,2.98,4,3.88,.85,.44,1.8,.65,2.75,.59,.97-.1,1.88-.51,2.59-1.18,1.48-1.35,2.2-3.39,3.15-5.3,.46-1,1.05-1.94,1.74-2.8,.74-.86,1.65-1.56,2.67-2.06,2.08-1.06,4.5-1.26,6.73-.55,2.27,.75,3.9,2.5,5.41,4.08,1.36,1.67,3.07,3.04,5,4,.95,.4,1.99,.52,3,.35,.98-.2,1.9-.64,2.67-1.28,1.49-1.3,2.65-2.95,3.36-4.8,1.49-3.61,2.8-7.18,4.8-10.11,.92-1.45,2.1-2.71,3.48-3.74,1.29-.94,2.8-1.52,4.39-1.69,1.44-.15,2.89,0,4.26,.45,.63,.19,1.25,.42,1.85,.69,2.4,1.17,4.5,2.88,6.13,5,.78,1.02,1.41,2.16,1.85,3.37,.11,.33,.19,.66,.26,1,0,.06-.01,.13-.02,.19Z"/><path class="l" d="M68.74,95.21c0,.14-.46,.35-1.08,.47s-1.15,.1-1.17,0,.45-.35,1.07-.47,1.13-.14,1.18,0Z"/><path class="l" d="M70.38,106.76c.06,.14-.3,.43-.81,.67s-1,.32-1,.19,.31-.42,.82-.66,.93-.3,.99-.2Z"/><path class="l" d="M72.43,119.45c0,.14-.33,.39-.84,.57s-1,.21-1,.08,.33-.39,.84-.57,.95-.21,1-.08Z"/><path class="l" d="M74.89,131.89c0,.14-.39,.4-1,.57s-1.06,.22-1.1,.08,.38-.39,.94-.57,1.11-.21,1.16-.08Z"/><path class="l" d="M144.8,72.12c.39-.14,.8-.24,1.21-.28,.8-.13,2-.31,3.45-.52,3-.42,7.21-1,12.26-1.59h.24v.24c.39,4.26,.85,9.16,1.33,14.36v.47h-.25l-16.57,2h-.23v-.22c-.46-4.35-.85-8-1.13-10.59-.12-1.22-.21-2.19-.29-2.93-.04-.33-.06-.67-.06-1,.08,.35,.14,.7,.18,1.06,.11,.74,.24,1.73,.41,3,.33,2.58,.78,6.16,1.33,10.46l-.25-.2,16.57-2.11-.23,.28v-.21c-.46-5.2-.89-10.11-1.27-14.37l.26,.21-16.96,1.94Z"/><path class="l" d="M160.2,74.64c0,.16-2.85,.15-6.33,.53s-6.27,1-6.31,.81c4.07-1.32,8.38-1.78,12.64-1.34Z"/><path class="l" d="M160.38,78.36c0,.15-2.66,.25-5.91,.57s-5.89,.72-5.92,.57c1.9-.61,3.87-.98,5.87-1.09,1.98-.28,3.98-.29,5.96-.05Z"/><path class="l" d="M156.41,81.6c-1.08,.41-2.22,.64-3.38,.69-1.13,.23-2.28,.29-3.43,.18,1.08-.4,2.22-.63,3.37-.69,1.13-.23,2.29-.29,3.44-.18Z"/><path class="l" d="M349.12,82.76c-36.3-11.06-66.93-20.51-108-20.25l-6.28,64.63c42.71,3.78,57,6.58,96.42,20.85l17.86-65.23Z"/><g class="j"><path class="g" d="M349.12,82.76c-36.3-11.06-66.93-20.51-108-20.25l-6.28,64.63c42.71,3.78,57,6.58,96.42,20.85l17.86-65.23Z"/></g><path class="l" d="M266.94,93.83l1.6-13.71c-3.99-.4-7.98,.71-11.19,3.1-4.32,3.16-6.87,8.19-6.88,13.54-.02,.67,0,1.33,.05,2h0l16-1.8,.42-3.13Z"/><path class="l" d="M283.49,91.59c-1.55-5.41-5.92-9.56-11.41-10.83l-.48-.1-.31-.07-.94-.14h-.08l-1.58,13.65-.38,3.22,15.12,5.52h0c.38-1.14,.64-2.32,.78-3.51,.3-2.6,.05-5.24-.72-7.74Z"/><g class="m"><path d="M283.49,91.59c-1.55-5.41-5.92-9.56-11.41-10.83l-.48-.1-.31-.07-.94-.14h-.08l-1.58,13.65-.38,3.22,15.12,5.52h0c.38-1.14,.64-2.32,.78-3.51,.3-2.6,.05-5.24-.72-7.74Z"/></g><path class="l" d="M267.17,98.86l-16,1.8c.67,7.76,6.33,14.19,13.93,15.13s14.73-4,17.23-11.4l-15.12-5.52"/><path class="l" d="M335.09,95.04c-.49-.15-.96-.34-1.41-.57-.89-.41-2.19-1-3.81-1.65-4.2-1.76-8.5-3.27-12.88-4.52-4.38-1.26-8.84-2.26-13.34-3-1.72-.28-3.13-.48-4.1-.61-.51-.04-1.01-.12-1.5-.26,.51-.02,1.02,0,1.53,.06,1,.07,2.39,.22,4.13,.45,9.08,1.23,17.94,3.76,26.31,7.5,1.6,.72,2.88,1.34,3.75,1.8,.46,.23,.9,.5,1.32,.8Z"/><path class="l" d="M333.99,101.76c-.48-.16-.96-.35-1.41-.58-.89-.4-2.19-1-3.81-1.64-8.41-3.54-17.21-6.05-26.22-7.48-1.72-.28-3.13-.48-4.1-.61-.51-.05-1.01-.14-1.5-.26,.51-.03,1.02-.01,1.53,.06,1,.06,2.39,.21,4.13,.44,4.53,.62,9.02,1.56,13.42,2.82,4.4,1.26,8.71,2.83,12.89,4.69,1.6,.72,2.88,1.34,3.75,1.8,.46,.21,.91,.46,1.32,.76Z"/><path class="l" d="M332.89,108.53c-.49-.15-.96-.34-1.41-.57-.89-.4-2.19-1-3.81-1.65-4.2-1.76-8.5-3.28-12.88-4.55-4.39-1.25-8.84-2.25-13.34-3-1.72-.27-3.12-.48-4.1-.61-.51-.04-1.01-.12-1.5-.26,.51-.02,1.02,0,1.53,.06,1,.07,2.39,.22,4.13,.45,4.53,.62,9.02,1.56,13.42,2.82,4.4,1.25,8.71,2.82,12.89,4.69,1.6,.72,2.88,1.34,3.75,1.8,.47,.23,.91,.5,1.32,.82Z"/><path class="l" d="M330.69,115.28c-.47-.16-.93-.35-1.37-.57-.86-.41-2.12-1-3.68-1.64-8.14-3.53-16.68-6.05-25.44-7.49-1.68-.28-3-.48-4-.61-.49-.04-.98-.13-1.46-.26,.5-.03,1,0,1.49,.06,.95,.06,2.32,.21,4,.45,4.41,.62,8.77,1.56,13.05,2.82,4.28,1.27,8.46,2.85,12.51,4.72,1.55,.72,2.79,1.34,3.62,1.8,.45,.2,.88,.44,1.28,.72Z"/><path class="l" d="M325.91,120.66c-.42-.13-.83-.29-1.23-.49l-3.31-1.47c-7.24-3.28-14.93-5.48-22.82-6.51l-3.59-.5c-.44-.04-.88-.12-1.31-.23,.44-.05,.89-.05,1.33,0,.86,0,2.09,.16,3.61,.33,7.96,.84,15.72,3.06,22.93,6.54,1.39,.66,2.49,1.22,3.25,1.63,.4,.19,.79,.43,1.14,.7Z"/><path class="l" d="M309.78,121.42c-.87-.11-1.73-.29-2.58-.53-1.58-.37-3.77-.85-6.21-1.26s-4.67-.73-6.28-1c-.88-.08-1.75-.23-2.6-.45,.88-.07,1.77-.04,2.64,.08,1.63,.14,3.87,.38,6.33,.81,2.1,.36,4.17,.83,6.21,1.42,.86,.21,1.7,.53,2.49,.93Z"/><path class="l" d="M247.37,70.13l.84-.05,2.5-.08c2.2,0,5.4,0,9.48,.21,11.29,.75,22.46,2.76,33.3,6l.18,.06v.19c-2.5,14.33-5.48,31.36-8.66,49.58-.13,.74-.26,1.48-.39,2.2v.28l-.28-.07c-7.32-1.92-14.74-3.45-22.23-4.59-7.17-1.1-14-1.88-20.38-2.28h-.25v-.24c1.75-15.29,3.22-28.09,4.25-37.1,.52-4.46,.94-8,1.22-10.4,.14-1.18,.26-2.09,.33-2.73,0-.29,.07-.52,.09-.7s0-.23,0-.22c0,.08,0,.17,0,.25,0,.18,0,.42-.07,.72-.06,.65-.16,1.58-.28,2.78-.25,2.44-.63,6-1.1,10.46-1,9-2.36,21.75-4,37l-.22-.25c6.39,.38,13.25,1.15,20.43,2.24,7.5,1.14,14.95,2.66,22.29,4.58l-.32,.21c.13-.72,.26-1.46,.39-2.2,3.21-18.22,6.21-35.24,8.73-49.56l.15,.25c-10.8-3.25-21.93-5.3-33.18-6.13-4.06-.27-7.28-.34-9.44-.33h-3.36l-.02-.08Z"/></g><g id="d"><path class="g" d="M225.89,422.46c.2-.12,.46-.07,.58,.13,.12,.2,.07,.46-.13,.58-.12,.07-.26,.09-.39,.03-.21-.11-.3-.38-.18-.59,.03-.06,.07-.11,.12-.15"/><path class="l" d="M313.7,127.11l15.34,6.9s-24,34.15-28.91,39.65-53.29,12.38-53.29,12.38l-2.31-20.23,41.24-7,27.93-31.7Z"/><path class="g" d="M297.97,175.28c-.09,0-.2-1.22-.72-3.1-.31-1.1-.7-2.17-1.18-3.21-.6-1.26-1.31-2.46-2.12-3.6-.84-1.12-1.77-2.16-2.79-3.12-.84-.78-1.74-1.48-2.69-2.11-1.63-1.08-2.76-1.55-2.72-1.63s.3,.06,.82,.26c.73,.29,1.43,.65,2.1,1.06,1,.6,1.94,1.29,2.82,2.06,1.06,.96,2.02,2.03,2.88,3.17,.83,1.16,1.55,2.41,2.13,3.72,.47,1.07,.84,2.17,1.11,3.31,.19,.76,.31,1.54,.36,2.32,.05,.29,.05,.58,0,.87Z"/><path class="g" d="M294.81,167.56c-.5,.21-1.01,.39-1.54,.52-1,.31-2.46,.73-4.26,1.22-3.61,1-8.62,2.22-14.21,3.4s-10.68,2.05-14.37,2.61c-1.85,.28-3.35,.48-4.39,.6-.54,.09-1.08,.14-1.62,.14,.52-.16,1.05-.27,1.59-.34l4.36-.77c3.67-.64,8.75-1.58,14.33-2.75s10.59-2.36,14.22-3.25l4.3-1.05c.52-.16,1.05-.27,1.59-.33Z"/><path class="g" d="M317.7,129.34c.11,.09-6.1,7.29-13.86,16.07s-14.14,15.83-14.3,15.74,6.1-7.3,13.86-16.08,14.14-15.83,14.3-15.73Z"/><path class="g" d="M298.15,153.64c.21-.11,.48-.03,.6,.18,.02,.04,.04,.08,.04,.13,.02,.23-.15,.44-.38,.46s-.44-.15-.46-.38c-.01-.14,.05-.28,.16-.37"/><path class="g" d="M273.03,169.92c.21-.12,.47-.05,.59,.16,.03,.05,.04,.1,.05,.15,.03,.23-.14,.44-.37,.46-.23,.03-.44-.14-.46-.37-.02-.15,.05-.29,.17-.38"/><path class="g" d="M285.11,167.24c.21-.11,.48-.03,.59,.18,.02,.04,.04,.09,.05,.14,0,.24-.2,.44-.45,.43-.05,0-.09,0-.13-.02-.21-.11-.3-.36-.19-.58,.02-.05,.05-.09,.09-.12"/><path class="g" d="M305,145.95c.21-.12,.47-.05,.59,.16,.03,.05,.04,.1,.05,.15,.03,.23-.14,.44-.37,.46-.23,.03-.44-.14-.46-.37-.02-.15,.05-.29,.17-.38"/><path class="g" d="M312.18,137.81c.19-.13,.45-.08,.58,.11,.13,.19,.08,.45-.11,.58-.12,.08-.28,.09-.41,.03-.21-.11-.3-.37-.19-.58,.03-.06,.07-.11,.13-.15"/><g class="m"><path class="g" d="M283.36,160.8c.11,.71-6.11,2.31-13.89,3.57s-14.2,1.7-14.31,1,6.1-2.3,13.89-3.56,14.19-1.72,14.31-1.01Z"/></g><path class="g" d="M262.57,171.79c.19-.13,.45-.08,.58,.11,.13,.19,.08,.45-.11,.58-.12,.08-.28,.09-.41,.03-.21-.11-.3-.37-.19-.58,.03-.06,.07-.11,.13-.15"/><path class="p" d="M240.2,162.84c4.3-1.39,9,0,11.87,3.48,2.74,3.54,3.61,8.17,2.34,12.46-1.19,4.23-6.83,9.94-10.65,11.53"/><path class="l" d="M333.14,129.34c1.31-1.71,2.44-3.54,3.38-5.48,.94-1.95,1.26-4.14,.92-6.27-.37-2.16-1.81-3.98-3.82-4.84-2.07-.8-4.42-.02-5.61,1.85l4.07-8c.5-1,1-2.23,.34-3.12-.72-.79-1.92-.91-2.78-.28-.81,.63-1.45,1.46-1.86,2.41l-6,11.29-5.32-8.33c-.54-.84-1.31-1.8-2.3-1.64-.8,.21-1.34,.95-1.32,1.77,.05,.8,.29,1.59,.68,2.29,1.55,3.28,4.36,10.75,4.36,10.75l15.26,7.6Z"/><path class="i" d="M243.76,189.74c-.08-.08,1.37-1.19,3.11-3.48,1.02-1.33,1.8-2.83,2.32-4.42,.6-1.96,.81-4.03,.62-6.07-.28-3.74-1.5-7.36-3.55-10.5-.55-.98-1.31-1.83-2.23-2.48-.36-.2-.74-.37-1.14-.5,.11-.02,.23-.02,.34,0,.31,.05,.62,.16,.9,.31,1,.62,1.83,1.46,2.44,2.46,2.19,3.15,3.49,6.84,3.76,10.67,.22,2.12,0,4.27-.63,6.31-.55,1.64-1.4,3.16-2.49,4.5-.72,.9-1.52,1.73-2.39,2.48-.32,.28-.68,.52-1.06,.72Z"/><path class="p" d="M313.7,127.11c4.16,2.66,8.51,5.02,13,7.07,1.79,.83,4,1.6,5.62,.45,1.12-.93,1.6-2.43,1.24-3.84-.39-1.38-1.12-2.64-2.13-3.66-2.94-3.3-6.75-5.69-11-6.89-1.49-.5-3.08-.63-4.63-.36-1.57,.28-2.87,1.38-3.41,2.89-.58,1.57-.06,3.33,1.27,4.34"/><path class="i" d="M332.99,132.74c-.08,0-.66-1.2-2-2.9-3.54-4.52-8.94-7.18-14.68-7.23-2.17,0-3.51,.26-3.53,.17,.29-.13,.61-.22,.93-.26,.86-.16,1.73-.25,2.6-.28,5.91-.15,11.51,2.61,15,7.38,.52,.7,.98,1.45,1.37,2.23,.15,.28,.26,.58,.31,.89Z"/><path class="p" d="M234.14,237.04c.14,.3-1.78,1.67-5.29,3.15-2.06,.86-4.18,1.56-6.34,2.09-5.33,1.3-10.83,1.71-16.29,1.2-2.22-.21-4.42-.59-6.58-1.13-3.69-.95-5.79-2-5.69-2.34s2.39,.07,6,.53c1.82,.24,4,.43,6.41,.54,2.61,.1,5.22,.06,7.83-.12,2.61-.19,5.2-.53,7.77-1,2.37-.47,4.49-1,6.26-1.48,3.56-1.04,5.75-1.81,5.92-1.44Z"/><path class="p" d="M232.83,242.53c.11,.33-1.74,1.34-4.95,2.4-8.46,2.66-17.42,3.32-26.18,1.9-3.33-.58-5.31-1.32-5.25-1.65,.14-.76,8.28,.4,18.26-.36s17.88-3.02,18.12-2.29Z"/><path class="l" d="M196.61,95.3s-33,6.1-32.58,35.65,28.36,24.58,36.48,23.54c3.68-.47,11-1.51,17.93-2.51,14.67-2.12,25.62-9.26,26.49-24.06,.11-1.74,.05-3.48-.18-5.2-2.05-15.62-16.64-34.42-48.14-27.42Z"/><path class="p" d="M232.22,124.93l-42.11,8.93c-4.41,.94-8.75-1.88-9.69-6.29h0c-.93-4.41,1.89-8.75,6.3-9.69l42.11-8.94c4.41-.93,8.75,1.89,9.69,6.3h0c.94,4.41-1.88,8.75-6.29,9.69h0Z"/><circle class="g" cx="195.8" cy="125" r="2.62"/><circle class="g" cx="225.22" cy="118.74" r="2.62"/><path class="g" d="M209.47,110.9c-.53-.97-1-1.97-1.41-3-1.06-2.41-2.43-4.67-4.09-6.71-1.61-2.07-3.74-3.67-6.18-4.64-1.03-.34-2.09-.6-3.16-.8,.29-.06,.6-.06,.89,0,.81,.06,1.62,.22,2.39,.48,2.55,.9,4.8,2.52,6.46,4.66,1.68,2.08,3.03,4.4,4,6.89,.38,1,.66,1.73,.84,2.27,.13,.27,.22,.56,.26,.85Z"/><path class="g" d="M210.53,153.11c-.07-.06,.88-1,2-2.71,1.51-2.26,2.5-4.83,2.9-7.52,.33-2.71,.3-5.44-.07-8.14-.22-1.12-.37-2.25-.45-3.39,.13,.28,.22,.58,.28,.88,.14,.58,.33,1.41,.53,2.45,.49,2.73,.57,5.52,.22,8.27-.4,2.77-1.47,5.4-3.11,7.66-.49,.68-1.04,1.32-1.63,1.91-.19,.23-.42,.43-.67,.59Z"/><g class="m"><path d="M241.18,140.28c-3.87-2.38-8.3-3.73-12.84-3.91-4.52-.17-9.05,.15-13.5,.93-10.34,1.56-20.93,4-29.3,10.26-2.46,1.65-4.42,3.96-5.66,6.65,0,0,4.44,1.83,13.3,1.24s27.13-3.77,27.13-3.77c0,0,9.35-1.58,14.63-5.53s6.24-5.87,6.24-5.87Z"/></g><path class="g" d="M241.08,114.41c.18,.49,.31,1,.37,1.52,.23,1.49,.09,3.02-.4,4.45-.81,2.27-2.39,4.18-4.47,5.4-2.39,1.48-5.5,2.28-8.88,3l-23.83,5.26-6.89,1.5c-2.35,.48-4.73,1.11-7.24,1.43-2.58,.46-5.24,0-7.52-1.28-2.29-1.46-3.94-3.72-4.64-6.34-.7-2.62-.37-5.41,.91-7.8,1.25-2.3,3.23-4.12,5.64-5.16,1.17-.44,2.37-.78,3.6-1l3.55-.83,6.86-1.6,12.7-3c4-.85,7.63-2,11.05-2.66,1.62-.34,3.27-.56,4.92-.67,1.48-.12,2.97-.07,4.44,.15,2.37,.34,4.62,1.28,6.52,2.73,1.18,.93,2.13,2.13,2.77,3.49,.17,.35,.32,.72,.43,1.09,.05,.12,.08,.25,.11,.38,0,0-.17-.51-.63-1.42-.67-1.32-1.63-2.48-2.81-3.39-1.89-1.39-4.1-2.28-6.43-2.59-1.45-.2-2.91-.24-4.37-.11-1.64,.12-3.27,.36-4.88,.7-3.39,.7-7,1.85-11,2.72l-12.69,3-6.86,1.63-3.55,.83c-1.2,.22-2.37,.56-3.51,1-2.3,1-4.19,2.74-5.39,4.94-1.22,2.27-1.53,4.93-.87,7.42,.67,2.48,2.24,4.62,4.41,6,2.19,1.22,4.72,1.65,7.19,1.22,2.45-.32,4.84-.94,7.19-1.42l6.9-1.48,23.85-5.11c3.08-.47,6.05-1.45,8.81-2.89,2.04-1.16,3.61-3.01,4.43-5.22,.49-1.4,.66-2.9,.49-4.37-.13-1-.31-1.51-.28-1.52Z"/><path class="g" d="M164.49,135.84c.46-.55,1.01-1.02,1.61-1.41,2.78-2.05,5.91-3.59,9.23-4.53,.67-.24,1.38-.37,2.09-.41,.05,.16-3.11,1-6.68,2.73s-6.15,3.75-6.25,3.62Z"/><path class="g" d="M198.78,99.44c.19-.13,.45-.08,.58,.11,.13,.19,.08,.45-.11,.58-.12,.08-.28,.09-.41,.03-.21-.12-.29-.39-.17-.6,.03-.05,.07-.1,.11-.13"/><path class="g" d="M204.01,107.09c.19-.13,.45-.08,.58,.11,.13,.19,.08,.45-.11,.58-.12,.08-.28,.09-.41,.03-.21-.13-.28-.4-.16-.62,.03-.04,.06-.08,.1-.11"/><path class="g" d="M172.34,128.49c.21-.12,.47-.05,.59,.16,.03,.05,.05,.1,.05,.16,0,.24-.19,.43-.42,.44-.05,0-.11,0-.16-.03-.21-.12-.29-.38-.18-.6,.02-.04,.05-.08,.09-.11"/><path class="g" d="M165.8,132.04c.2-.12,.46-.07,.58,.13,.12,.2,.07,.46-.13,.58-.12,.07-.26,.09-.39,.03-.21-.12-.29-.38-.18-.6,.02-.04,.05-.08,.09-.11"/><g class="m"><path class="g" d="M205.53,95.78c.08,.38-2.89,1.22-7.58,2.73s-11.13,3.76-17.11,8c-2.77,2.02-5.23,4.43-7.3,7.17-1.68,2.24-3.03,4.71-4,7.34-1.64,4.52-1.43,7.65-1.88,7.66-.16,0-.4-.75-.52-2.18-.11-2.02,.11-4.05,.64-6,.79-2.92,2.08-5.69,3.81-8.18,2.11-3.05,4.72-5.72,7.73-7.89,2.99-2.12,6.24-3.85,9.66-5.16,2.76-1.06,5.59-1.91,8.48-2.54,4.91-1.07,8-1.28,8.07-.95Z"/></g><g class="m"><path class="g" d="M173.63,143.24c-.44,.56-2.34-.22-3.74-2.18s-1.51-4-.84-4.25,1.79,1.11,3,2.74,2.03,3.12,1.58,3.69Z"/></g><path class="l" d="M242.05,159.29c2,.57,1.88,29.53,1.45,44.31-.23,7.92-.82,16.19-4.86,23-4.5,7.59-13.07,12.44-21.88,13-10.59,.72-21.07-4.41-28.32-12.18s-11.55-17.91-13.86-28.28-2.76-21-3.2-31.67c0,.04,34.32-18.43,70.67-8.18Z"/><g class="o"><path d="M172.99,181.51c-.24,9.34,1.41,20.11,4.4,27.9,3.24,8.44,7.94,16,15.8,22.4,2.21,1.65,4.55,3.11,7,4.36,2.07,1.07,4.25,1.9,6.51,2.47,3.73,1.07,5.92-3.55,6.65-7.36s-.64-7.8-3-10.91c-2.45-3.02-5.42-5.58-8.77-7.55-3.35-1.96-6.58-4.11-9.68-6.44-5.09-4.36-9.14-9.8-11.85-15.93-2.7-6.11-4.93-12.41-6.69-18.85"/></g><path class="g" d="M197.47,221.04c.22-.11,.49-.03,.61,.19,.02,.04,.04,.08,.04,.13,0,.24-.2,.44-.44,.44-.05,0-.1,0-.15-.03-.21-.11-.29-.37-.18-.58,.02-.05,.05-.09,.09-.12"/><path class="g" d="M210.31,220.51c.2-.12,.46-.07,.58,.13,.12,.2,.07,.46-.13,.58-.12,.07-.26,.09-.39,.03-.22-.11-.3-.38-.19-.59,.02-.04,.05-.08,.09-.12"/><path class="g" d="M224.33,207.27c.21-.12,.47-.05,.59,.16,.03,.05,.04,.1,.05,.15,.03,.23-.14,.44-.37,.46-.23,.03-.44-.14-.46-.37-.02-.15,.05-.29,.17-.38"/><path class="g" d="M217.89,174.54c.21-.11,.48-.03,.59,.18,.02,.04,.04,.09,.05,.14,0,.25-.21,.45-.46,.44-.04,0-.08,0-.12-.02-.22-.11-.3-.38-.19-.59,.02-.04,.05-.08,.09-.12"/><path class="g" d="M231.03,179.91c.21-.12,.47-.05,.59,.16,.03,.05,.04,.1,.05,.15,.02,.23-.15,.44-.38,.46s-.44-.15-.46-.38c-.01-.14,.05-.28,.16-.37"/><path class="g" d="M182.93,217.23c.21-.11,.48-.03,.59,.18,.02,.04,.04,.09,.05,.14,0,.24-.2,.44-.45,.43-.05,0-.09,0-.13-.02-.21-.11-.3-.36-.19-.58,.02-.05,.05-.09,.09-.12"/><path class="g" d="M180.81,206.34c.21-.11,.48-.03,.59,.18,.02,.04,.04,.09,.05,.14,0,.24-.2,.44-.45,.43-.05,0-.09,0-.13-.02-.21-.11-.3-.36-.19-.58,.02-.05,.05-.09,.09-.12"/><path class="g" d="M179.88,196.48c.21-.11,.48-.03,.59,.18,.02,.04,.04,.09,.05,.14,0,.24-.19,.43-.42,.44-.05,0-.11,0-.16-.03-.21-.12-.29-.38-.18-.6,.02-.04,.05-.08,.09-.11"/><path class="g" d="M178.95,186.04c.21-.11,.48-.03,.59,.18,.02,.04,.04,.09,.05,.14,0,.24-.2,.44-.45,.43-.05,0-.09,0-.13-.02-.21-.11-.3-.36-.19-.58,.02-.05,.05-.09,.09-.12"/><path class="g" d="M238.83,177.35c.19-.13,.45-.08,.58,.11,.13,.19,.08,.45-.11,.58-.12,.08-.28,.09-.41,.03-.21-.11-.3-.37-.19-.58,.03-.06,.07-.11,.13-.15"/><path class="g" d="M226.47,219.53c.21-.12,.47-.05,.59,.16,.03,.05,.04,.1,.05,.15,.03,.23-.14,.44-.37,.46-.23,.03-.44-.14-.46-.37-.02-.15,.05-.29,.17-.38"/><path class="g" d="M227.88,229.87c.19-.13,.45-.08,.58,.11,.13,.19,.08,.45-.11,.58-.12,.08-.28,.09-.41,.03-.21-.12-.29-.39-.17-.6,.03-.05,.07-.1,.11-.13"/><g class="m"><path class="g" d="M234.09,167.04c.1,.31-3,1.7-8.3,3.13-3.1,.84-6.25,1.51-9.43,2-7.8,1.21-15.71,1.48-23.57,.8-3.2-.28-6.39-.73-9.54-1.34-5.38-1.08-8.57-2.25-8.49-2.57,.16-.79,13.32,2.24,29.76,1.62s29.35-4.38,29.57-3.64Z"/></g><path class="g" d="M196.28,234.04s-.2-.13-.55-.42-.85-.75-1.46-1.36c-1.76-1.73-3.19-3.76-4.22-6-.68-1.55-1.24-3.15-1.68-4.78-.52-1.73-1-3.6-1.56-5.57-1.05-3.95-2.07-8.31-3-12.93-1.56-7.91-2.66-15.9-3.31-23.94-.23-3.07-.36-5.56-.42-7.29v-2c-.02-.23-.02-.47,0-.7,.05,.23,.08,.46,.09,.69,0,.51,.09,1.16,.15,2,.12,1.72,.31,4.21,.59,7.27,.59,6.13,1.62,14.59,3.46,23.81,.92,4.6,1.92,9,3,12.91,.51,2,1,3.83,1.51,5.57,.41,1.62,.94,3.21,1.59,4.75,.98,2.22,2.33,4.25,4,6,.58,.63,1.06,1.1,1.38,1.42,.16,.18,.3,.37,.43,.57Z"/><path class="g" d="M219.56,202.14c.14,0,1.21,7.94,2.4,17.78s2,17.83,1.89,17.85-1.22-7.95-2.41-17.79-2.03-17.83-1.88-17.84Z"/><path class="g" d="M204.5,157.25c.27,.21,.51,.45,.72,.72,.43,.48,1,1.19,1.8,2.07,1.51,1.77,3.56,4.24,5.8,7l.83,1,.1,.12c.06,.04,.1,.1,.12,.16,.03,.07,.06,.15,.08,.22v.17c.05,.22,.07,.43,.1,.64,.08,.84,.13,1.65,.17,2.42,.08,1.53,.11,2.92,.14,4.08s0,2.1,0,2.75c.02,.33,0,.67-.07,1-.19-1.24-.29-2.49-.31-3.75-.07-1.2-.16-2.57-.25-4.06,0-.77-.11-1.57-.2-2.39,0-.2-.05-.41-.09-.6v-.23s-.12-.13-.17-.22l-.83-1c-2.24-2.74-4.25-5.25-5.68-7.07-.72-.92-1.29-1.66-1.68-2.19-.23-.25-.42-.54-.58-.84Z"/><path class="g" d="M220.45,217.23c-.41,.13-.82,.22-1.25,.26-.82,.14-2,.3-3.45,.48-2.92,.37-7,.76-11.45,1s-8.55,.24-11.49,.18c-1.46,0-2.65-.08-3.47-.13-.43,0-.86-.05-1.28-.13,.42-.07,.85-.1,1.28-.08h3.48c2.93,0,7-.11,11.46-.33s8.51-.56,11.43-.83l3.46-.32c.42-.07,.85-.11,1.28-.1Z"/><path class="g" d="M243.7,178.6s-.23,.21-.69,.49c-.65,.4-1.32,.77-2,1.11-2.27,1.11-4.63,2.01-7.06,2.71-2.42,.72-4.89,1.26-7.38,1.64-1.03,.2-2.07,.31-3.12,.3,1-.29,2.02-.51,3.05-.66,1.89-.38,4.49-1,7.3-1.77,2.4-.7,4.76-1.56,7.06-2.55,1.69-.78,2.75-1.34,2.84-1.27Z"/><circle class="p" cx="216.22" cy="190.75" r="11.72"/><circle class="g" cx="216.22" cy="190.77" r="8.54" transform="translate(-35.68 50.45) rotate(-12.3)"/><path class="l" d="M220.76,192.59c-.09-.46-.15-.92-.18-1.39-.08-.88-.19-2.14-.31-3.67l.11,.16-4.57-2.23h.25l-4.24,2.81c-.11,.21,.14-.28,.11-.23h0v1.3c0,.44,.05,.87,.07,1.29,.05,.85,.09,1.67,.14,2.46l-.14-.2,4.52,2.33h-.19c1.3-.83,2.37-1.49,3.12-1.95,.4-.25,.81-.48,1.23-.69-.32,.31-.67,.59-1.05,.82-.71,.51-1.76,1.24-3.09,2.14l-.09,.06h-.1l-4.57-2.23-.12-.06v-.15c-.05-.79-.11-1.61-.16-2.46,0-.42-.05-.85-.08-1.29v-1.37h0c0,.05,.23-.44,.12-.24l4.26-2.78,.12-.08,.12,.07,4.52,2.33,.11,.05v.11c.07,1.59,.11,2.88,.13,3.76,.03,.44,.02,.89-.04,1.33Z"/><g class="o"><path d="M171.38,167.51s34.33-18.75,70.67-8.22c0,0-15.55,14.75-70.67,8.22Z"/></g><path class="g" d="M226.7,398.22c.19-.13,.45-.08,.58,.11,.13,.19,.08,.45-.11,.58-.12,.08-.27,.1-.41,.04-.22-.11-.3-.38-.19-.59,.02-.04,.05-.08,.09-.12"/><path class="l" d="M211.79,269.78c.63,24.42,3.12,48.85,9.34,72.47,1.06,4.06,2.32,8.27,5.23,11.29s8,4.37,11.36,1.87c2.89-2.13,3.54-6.11,3.94-9.68,3.11-26.16,4.83-52.46,5.17-78.8,0,0,.77-20.13-13.43-20.12s-21.99,8.01-21.61,22.97Z"/><g class="o"><path d="M221.7,249.04c1.78-2.15,5.36-2,7.53-.25s3.12,4.61,3.44,7.38c1,8.76-3.3,17.16-4.83,25.84-1.47,8.36-.35,16.94-.75,25.41s-2.27,17.13-8.9,22.41c0,0-6.42-32.65-5.52-45.12,.67-9.13,9.03-35.67,9.03-35.67Z"/></g><path class="g" d="M223.6,281.94c.06,.25,.11,.5,.12,.76l.24,2.19c.2,1.95,.48,4.68,.82,8,.71,6.79,1.74,16.16,3.07,26.48s2.7,19.65,3.74,26.39c.52,3.33,.94,6.05,1.24,8,.13,.9,.24,1.62,.32,2.17,.05,.25,.08,.5,.08,.76-.09-.24-.15-.49-.18-.74-.11-.54-.25-1.26-.42-2.16-.36-1.88-.84-4.59-1.4-8-1.13-6.73-2.57-16.05-3.9-26.38s-2.3-19.71-2.91-26.51c-.31-3.4-.53-6.15-.66-8.06-.06-.91-.11-1.64-.15-2.19-.02-.24-.03-.47,0-.71Z"/><path class="p" d="M202.7,287.44c6.63,3.24,16.09,.61,20.68-6.09s6-15,7.35-23c.44-2.69,.8-5.74-.87-7.89-1.92-2.46-5.53-2.58-8.64-2.48l-29.65,1s-10.79,3.09-10.79,9.6,12.85,24.46,21.92,28.86Z"/><path class="l" d="M228.17,359.04c-3.19,.15-5.87,2.71-7.13,5.65s-1.4,6.22-1.51,9.41c-.68,19.44-1.36,38.92-.28,58.34,.23,4.21,.64,8.68,3.21,12s8.09,4.73,11,1.68c1.66-1.74,2-4.32,2.26-6.71l7.56-69.52c.28-2.62,.53-5.45-.81-7.72-1.43-2.13-3.77-3.49-6.33-3.68-2.53-.17-5.07,.05-7.53,.65"/><path class="g" d="M224.25,450.49c0-.08,0-.15,0-.23l-.09-.69c-.07-.6-.18-1.49-.29-2.64-.22-2.3-.47-5.64-.65-9.77-.4-8.27-.32-19.7,.06-32.31s.75-24,1-32.28c0-3.29,.56-6.55,1.68-9.64,.34-.83,.76-1.62,1.26-2.36l.42-.55c.09-.13,.15-.19,.15-.18-.03,.07-.06,.15-.11,.21l-.37,.58c-.45,.76-.84,1.55-1.16,2.37-1.04,3.09-1.55,6.32-1.5,9.58-.22,8.3-.52,19.7-.85,32.29s-.52,24-.22,32.27c.14,4.13,.34,7.47,.5,9.77,.07,1.12,.14,2,.18,2.65v.7c.01,.08,.01,.16-.01,.23Z"/><path class="p" d="M221.04,452.04c-.36-1.98-.45-4-.28-6,.18-2.01,1.15-3.87,2.69-5.17,2.64-1.69,5.93-2.01,8.85-.87,2.13,1.23,3.54,3.41,3.8,5.86l1.49,7.25"/><path class="l" d="M220.45,451.7l17.26,.18s12.7,2.88,12.43,3.9-30.2-.2-30.2-.2l.51-3.88Z"/><path class="i" d="M216.16,248.9c.23,.5,.43,1.02,.58,1.55,.22,.61,.4,1.24,.55,1.87,.24,.83,.43,1.67,.58,2.52,.22,1.02,.38,2.05,.49,3.09,.16,1.12,.21,2.32,.29,3.59,.08,2.75-.07,5.5-.47,8.22-.43,2.72-1.09,5.4-2,8-.47,1.18-.88,2.31-1.4,3.32-.25,.5-.47,1-.72,1.46l-.74,1.31c-.43,.75-.89,1.48-1.39,2.18-.35,.55-.74,1.07-1.16,1.57-.32,.45-.68,.87-1.08,1.25,.27-.48,.58-.94,.92-1.37,.39-.52,.75-1.06,1.09-1.62,.4-.64,.88-1.35,1.31-2.2,.23-.42,.46-.86,.71-1.31s.44-1,.68-1.47c.49-1,.88-2.13,1.34-3.29,.89-2.57,1.56-5.22,2-7.91,.39-2.69,.56-5.41,.51-8.13-.06-1.25-.09-2.44-.24-3.55s-.26-2.14-.42-3.07-.34-1.78-.5-2.52-.31-1.37-.46-1.88c-.2-.52-.35-1.06-.47-1.61Z"/><path class="g" d="M229.7,307.11c.21-.11,.48-.03,.6,.18,.02,.04,.04,.08,.04,.13,.02,.23-.15,.44-.38,.46-.23,.02-.44-.15-.46-.38-.01-.14,.05-.28,.16-.37"/><path class="g" d="M232.19,328.5c.2-.12,.46-.07,.58,.13,.12,.2,.07,.46-.13,.58-.12,.07-.26,.09-.39,.03-.21-.12-.29-.38-.18-.6,.02-.04,.05-.08,.09-.11"/><path class="g" d="M227.11,285.28c.19-.13,.45-.08,.58,.11s.08,.45-.11,.58c-.12,.08-.28,.09-.41,.03-.21-.12-.29-.38-.18-.6,.02-.04,.05-.08,.09-.11"/><path class="g" d="M227.11,377.81c.21-.12,.47-.05,.59,.16,.03,.05,.05,.1,.05,.16,0,.24-.19,.43-.42,.44-.05,0-.11,0-.16-.03-.21-.12-.29-.38-.18-.6,.02-.04,.05-.08,.09-.11"/><path class="i" d="M236.43,446.04c-.7,.39-1.45,.67-2.23,.84-1.85,.51-3.75,.82-5.67,.94-1.92,.12-3.84,.04-5.74-.25-.79-.08-1.57-.26-2.31-.56,2.66,.27,5.33,.37,8,.29,2.67-.25,5.33-.67,7.95-1.26Z"/><g class="o"><path d="M218.7,417.62c4.57-3.34,7.5-8.55,9.13-14s2.07-11.12,2.51-16.77,.9-11.35,2.57-16.77c.48-1.14,.66-2.39,.53-3.62-.41-1.94-2.39-3.08-4.2-3.9-2.24-1-5.06-1.85-7-.32-1.45,1.15-1.77,3.19-1.95,5-1.74,17-1.6,34.05-1.46,51.09"/></g><circle class="p" cx="233.51" cy="356.03" r="12.28"/><path class="i" d="M245.1,354.26c-.17,.29-.39,.54-.64,.76-.65,.63-1.38,1.17-2.16,1.62-2.64,1.44-5.62,2.11-8.62,1.95-2.96-.19-5.89-.78-8.69-1.77-1.07-.35-1.93-.67-2.52-.9-.31-.1-.62-.23-.9-.4,1.2,.24,2.38,.55,3.53,.95,2.8,.85,5.68,1.38,8.6,1.57,2.91,.15,5.81-.45,8.42-1.75,1.05-.59,2.04-1.27,2.98-2.03Z"/><path class="l" d="M106.01,157.93s-2.41-9.87-3.7-10.34-16.76,1.75-16.76,1.75c0,0-5-7-5.8-7.94s-2.45,1.39-1.91,2.45,4.23,11.29,6.52,11.64c2.69,.16,5.39,.12,8.07-.11l1.88,6.44,11.7-3.89Z"/><path class="l" d="M172.88,196.13c-9.76,3.56-16,5.36-25.77,9-5.42,2-12.32,4.24-17.43,5.55-3.41,.88-7.32,1.15-10.62-.29-2.81-1.22-4.87-3.67-6.72-6.12-8.67-11.46-13.5-26-16.87-40l11.73-2.21,21.22,29.68,38.57-13.19,6.36,15.68c.44,.46,.42,1.2-.04,1.64-.12,.12-.27,.21-.43,.26Z"/><path class="p" d="M173.28,171.35c-7.23,2.22-11.3,9.88-9.09,17.11,.79,2.58,2.32,4.87,4.41,6.58,1.6,1.31,3.85,2.32,5.72,.32,.58-.64,1-1.41,1.22-2.25,2.08-7.27,1.27-15.07-2.26-21.76Z"/><path class="i" d="M167.36,175.1s0-.09,.14-.23c.16-.2,.34-.38,.55-.53,.17-.11,.36-.18,.56-.21,.23,0,.47,.05,.68,.14,.25,.1,.48,.27,.64,.49l.5,.66c1.84,2.45,3.1,5.28,3.7,8.29,.63,3,.55,6.12-.25,9.08-.26,.91-.75,1.74-1.44,2.39-.24,.25-.55,.42-.89,.5,0,0,.31-.2,.75-.65,.59-.67,1.02-1.47,1.23-2.34,.67-2.92,.7-5.94,.09-8.87-.59-2.94-1.78-5.72-3.49-8.18-.34-.48-.57-1-1-1.11-.31-.18-.69-.18-1,0-.5,.31-.74,.61-.77,.57Z"/><path class="g" d="M128.42,191.79c.11,.27,.16,.57,.17,.86,.11,.79,.15,1.59,.11,2.39-.04,1.19-.23,2.37-.54,3.52-1.09,4-3.57,7.47-7,9.79-.65,.46-1.34,.87-2.06,1.22-.25,.15-.53,.26-.81,.33,0-.09,1.07-.65,2.65-1.85,2.06-1.55,3.8-3.5,5.1-5.73,.7-1.23,1.26-2.53,1.66-3.89,.32-1.11,.53-2.26,.63-3.41,.15-1.98-.01-3.22,.09-3.23Z"/><path class="g" d="M165.15,182.21c.05,.13-8.13,3.33-18.27,7.14s-18.4,6.8-18.45,6.66,8.12-3.33,18.27-7.14,18.4-6.83,18.45-6.66Z"/><path class="g" d="M99.29,164.04c.09,.14,.16,.3,.2,.46l.5,1.36c.42,1.17,1,2.87,1.85,5,1.6,4.17,4,9.86,7.05,16,1.53,3,3.08,5.9,4.55,8.46s2.88,4.82,4.12,6.67c.61,.94,1.18,1.77,1.69,2.5s.94,1.36,1.32,1.85l.84,1.18c.18,.27,.28,.42,.26,.43-.13-.11-.24-.23-.34-.37l-.92-1.11c-.4-.48-.87-1.09-1.39-1.81s-1.14-1.53-1.76-2.46c-1.29-1.83-2.71-4.1-4.24-6.63s-3.06-5.42-4.6-8.47c-2.61-5.22-4.92-10.58-6.93-16.06-.77-2.11-1.33-3.83-1.69-5-.16-.55-.3-1-.41-1.38-.07-.2-.1-.41-.1-.62Z"/><path class="g" d="M136.01,195.4c.2-.13,.25-.4,.11-.6-.03-.04-.07-.08-.11-.11-.2-.11-.46-.04-.57,.16s-.04,.46,.16,.57c.13,.07,.29,.07,.42,0"/><path class="g" d="M119.7,200.23c.2-.12,.27-.37,.15-.57s-.37-.27-.57-.15c-.12,.07-.2,.2-.21,.35,0,.24,.19,.43,.43,.43,.07,0,.14-.02,.2-.05"/><path class="g" d="M112.25,188.63c.2-.12,.27-.37,.15-.57s-.37-.27-.57-.15c-.12,.07-.2,.2-.21,.34,0,.24,.2,.44,.45,.43,.06,0,.13-.02,.18-.04"/><path class="g" d="M145.59,192.04c.2-.12,.27-.37,.15-.57s-.37-.27-.57-.15c-.12,.07-.2,.2-.21,.35,0,.24,.21,.43,.46,.42,.06,0,.12-.02,.17-.04"/><path class="g" d="M156.4,188.32c.21-.11,.48-.03,.59,.18,.02,.04,.04,.09,.05,.14,0,.25-.21,.45-.46,.44-.04,0-.08,0-.12-.02-.22-.11-.3-.38-.19-.59,.02-.04,.05-.08,.09-.12"/><path class="p" d="M95.21,164.39c4.01-.29,7.99-.85,11.92-1.69,1.57-.32,3.39-.89,3.88-2.42,.29-1.14-.09-2.35-1-3.11-.92-.71-2.01-1.18-3.16-1.36-3.51-.73-7.15-.44-10.51,.82-1.21,.39-2.31,1.08-3.19,2-.89,.95-1.21,2.3-.83,3.54,.38,1.3,1.57,2.2,2.93,2.22"/><path class="i" d="M110.49,158.76c0,.08-1-.43-2.73-.89-4.47-1.19-9.24-.32-13,2.37-1.43,1-2.17,1.85-2.24,1.78,.12-.24,.28-.45,.47-.63,.48-.52,.99-1.01,1.55-1.45,3.78-2.97,8.78-3.88,13.36-2.42,.69,.21,1.36,.48,2,.81,.22,.11,.42,.26,.59,.43Z"/><path class="l" d="M191.7,358.04c-3.18,.35-5.7,3.06-6.78,6.06s-1,6.3-.95,9.49c.47,19.45,.94,38.93,3.16,58.26,.49,4.18,1.16,8.62,3.92,11.8s8.36,4.24,11.08,1c1.55-1.84,1.74-4.43,1.86-6.83,1.14-23.28,2.28-46.56,3.43-69.85,.13-2.63,.2-5.47-1.27-7.66-1.54-2.01-3.92-3.21-6.45-3.27-2.53-.02-5.06,.35-7.48,1.1"/><path class="l" d="M175.18,270.04c.62,24.42,3.12,48.86,9.33,72.48,1.07,4.06,2.33,8.26,5.24,11.28s8,4.37,11.36,1.88c2.88-2.14,3.54-6.11,3.93-9.68,3.11-26.16,4.84-52.47,5.18-78.81,0,0,.76-20.13-13.43-20.12s-21.99,8.03-21.61,22.97Z"/><g class="m"><path class="g" d="M187.05,346.04c-.35,.05-1.49-5.1-3-13.49s-3.48-20-5-32.94c-.77-6.47-1.33-12.66-1.79-18.27s-.83-10.78-.27-15.13c.3-3.47,1.43-6.82,3.27-9.78l1-1.29c.26-.31,.53-.59,.83-.86,.46-.44,.74-.63,.8-.57s-.07,.37-.4,.9c-.15,.28-.38,.58-.6,1s-.46,.86-.74,1.36c-1.39,2.96-2.18,6.17-2.31,9.44-.3,4.15,.2,9.14,.83,14.73s1.22,11.75,2,18.19c1.51,12.88,3.16,24.52,4.23,33s1.51,13.65,1.15,13.71Z"/></g><path class="g" d="M194.85,356.74c-.04-.09-.07-.18-.09-.28l-.21-.82-.75-3.18c-.62-2.76-1.45-6.78-2.37-11.76-1.8-10-3.68-23.85-5-39.25-.68-7.7-1.22-15.05-1.69-21.73-.24-3.33-.46-6.51-.67-9.48-.25-2.76-.32-5.53-.23-8.3,.09-2.3,.52-4.56,1.29-6.73,.58-1.64,1.42-3.17,2.5-4.53,.68-.86,1.48-1.62,2.37-2.26,.32-.23,.65-.43,1-.6-1.2,.84-2.28,1.85-3.18,3-1.03,1.36-1.84,2.88-2.39,4.5-.72,2.15-1.12,4.39-1.19,6.65-.07,2.75,.03,5.51,.29,8.25,.23,3,.46,6.14,.71,9.48,.51,6.67,1.06,14,1.74,21.71,1.33,15.39,3.15,29.26,4.86,39.24,.86,5,1.64,9,2.2,11.78,.28,1.36,.5,2.43,.65,3.19,.07,.35,.12,.62,.16,.84,0,.09,0,.19,0,.28Z"/><path class="g" d="M192.09,443.49c-.07-.27-.12-.55-.14-.83-.08-.6-.18-1.4-.3-2.4-.25-2.09-.58-5.11-.94-8.85-.74-7.48-1.59-17.83-2.21-29.28s-.9-21.84-1-29.35c0-3.76-.05-6.8,0-8.9v-2.42c-.03-.28-.03-.56,0-.84,.05,.28,.07,.56,.06,.84,0,.6,0,1.4,.06,2.42,0,2.15,.11,5.17,.18,8.89,.18,7.51,.51,17.88,1.13,29.33s1.41,21.79,2.05,29.27c.33,3.71,.59,6.72,.78,8.87,.08,1,.15,1.81,.2,2.41,.06,.28,.1,.56,.13,.84Z"/><circle class="p" cx="195.18" cy="356.32" r="12.28"/><path class="p" d="M188.02,454.42c0-2,0-7.55,.58-9.47,.48-1.96,1.71-3.65,3.42-4.72,1.4-.69,2.97-.98,4.53-.84,1.54,.02,3.05,.47,4.35,1.29,1.93,1.53,3.01,3.89,2.9,6.35l.41,7.39"/><path class="l" d="M188.29,452.04l17.27-.16s12.75,2.62,12.5,3.65-30.2,.39-30.2,.39l.43-3.88Z"/><path class="g" d="M188.77,290.39c.21-.11,.48-.03,.6,.18,.02,.04,.04,.08,.04,.13,.02,.23-.15,.44-.38,.46-.23,.02-.44-.15-.46-.38-.01-.14,.05-.28,.16-.37"/><path class="g" d="M187.52,271.94c.19-.13,.45-.08,.58,.11,.13,.19,.08,.45-.11,.58-.12,.08-.28,.09-.41,.03-.21-.12-.29-.39-.17-.6,.03-.05,.07-.1,.11-.13"/><path class="g" d="M190.31,313.04c.21-.11,.48-.03,.59,.18,.02,.04,.04,.09,.05,.14,0,.25-.21,.45-.46,.44-.04,0-.08,0-.12-.02-.22-.11-.3-.38-.19-.59,.02-.04,.05-.08,.09-.12"/><path class="g" d="M193.43,338.5c.21-.11,.48-.03,.59,.18,.02,.04,.04,.09,.05,.14,0,.25-.21,.45-.46,.44-.04,0-.08,0-.12-.02-.22-.11-.3-.38-.19-.59,.02-.04,.05-.08,.09-.12"/><path class="g" d="M189.9,377.36c.2-.12,.46-.07,.58,.13,.12,.2,.07,.46-.13,.58-.12,.07-.26,.09-.39,.03-.21-.11-.3-.38-.18-.59,.03-.06,.07-.11,.12-.15"/><path class="g" d="M191.85,397.43c.19-.13,.45-.08,.58,.11,.13,.19,.08,.45-.11,.58-.12,.08-.28,.09-.41,.03-.21-.11-.3-.37-.19-.58,.03-.06,.07-.11,.13-.15"/><path class="g" d="M192.09,419.92c.2-.12,.46-.07,.58,.13,.12,.2,.07,.46-.13,.58-.12,.07-.26,.09-.39,.03-.21-.11-.3-.38-.18-.59,.03-.06,.07-.11,.12-.15"/><path class="i" d="M207.22,353.88s-.22,.3-.71,.74c-.7,.61-1.46,1.16-2.26,1.63-5.41,3.26-12.14,3.42-17.71,.43-.82-.44-1.61-.95-2.34-1.53-.29-.19-.54-.43-.75-.7,.06-.08,1.17,.87,3.26,1.9,5.5,2.73,11.99,2.58,17.35-.41,2.04-1.13,3.1-2.13,3.16-2.06Z"/><path class="i" d="M203.7,446.72c-.68,.39-1.41,.67-2.17,.83-1.81,.5-3.67,.8-5.54,.89-1.88,.09-3.76-.03-5.61-.36-.77-.1-1.53-.31-2.24-.62,2.59,.34,5.21,.49,7.82,.46,2.61-.21,5.19-.62,7.74-1.2Z"/><path class="g" d="M216.5,120.9c.26,.72,.26,1.5,0,2.22-.22,.8-.64,1.53-1.2,2.14-1.94,2.08-5.2,2.2-7.28,.26-.13-.12-.25-.25-.37-.38-.55-.53-.91-1.24-1-2,.36,.62,.78,1.21,1.26,1.74,.54,.54,1.19,.96,1.91,1.21,.88,.3,1.83,.35,2.73,.14,.91-.2,1.73-.65,2.39-1.31,.53-.55,.94-1.2,1.2-1.92,.19-.69,.31-1.39,.36-2.1Z"/></g><g id="e"><path class="l" d="M212.69,252.64h-1.49l-4.36,.06c-3.84,.06-9.5,.21-16.78,.56s-16.18,1-26.47,2.2c-5.13,.62-10.63,1.32-16.42,2.28s-11.89,2.08-18.24,3.53-13,3.17-19.72,5.38c-7.04,2.23-13.88,5.05-20.45,8.43-3.44,1.8-6.72,3.9-9.8,6.27-3.2,2.39-5.92,5.37-8,8.78-.25,.44-.51,.87-.74,1.32l-.56,1.41-.29,.71c-.08,.24-.12,.49-.19,.74l-.35,1.48c-.33,2.04-.22,4.12,.3,6.11,1,4.05,3.65,7.54,6.72,10.48,6.26,5.89,14.25,10,22.54,13.42,8.54,3.42,17.32,6.19,26.27,8.31,18.84,4.41,38.02,7.24,57.33,8.44,19.31,1.3,38.68,1.38,58,.23,18-1.01,35.9-3.35,53.56-7,8.21-1.73,16.31-3.92,24.28-6.55,7.53-2.43,14.8-5.6,21.71-9.46,3.25-1.88,6.31-4.06,9.15-6.51,2.76-2.33,5.01-5.2,6.62-8.44l.5-1.22c.18-.4,.32-.81,.42-1.24l.3-1.26c.05-.21,.12-.42,.15-.63v-.65c.21-1.68,.08-3.38-.38-5-.49-1.6-1.2-3.11-2.11-4.51-.92-1.36-1.95-2.64-3.1-3.81-2.23-2.24-4.68-4.25-7.32-6-2.49-1.69-5.08-3.24-7.76-4.62-4.9-2.56-9.95-4.81-15.12-6.74-8.3-3.09-16.76-5.7-25.36-7.82-7.07-1.76-12.62-2.88-16.39-3.6-1.88-.37-3.33-.61-4.29-.8l-1.47-.28s2,.29,5.78,1,9.33,1.77,16.42,3.51c8.62,2.08,17.1,4.66,25.41,7.74,5.19,1.92,10.26,4.16,15.18,6.71,2.69,1.39,5.29,2.93,7.8,4.63,2.66,1.77,5.14,3.8,7.39,6.07,1.16,1.19,2.21,2.48,3.14,3.85,.95,1.42,1.68,2.98,2.19,4.61,.48,1.69,.62,3.46,.4,5.2l-.05,.66c0,.22-.1,.43-.15,.65l-.31,1.29c-.1,.44-.25,.86-.43,1.27l-.5,1.25c-1.63,3.29-3.91,6.21-6.71,8.58-2.86,2.48-5.95,4.68-9.22,6.58-6.92,3.88-14.21,7.07-21.76,9.52-7.98,2.65-16.1,4.85-24.33,6.59-17.68,3.65-35.6,5.99-53.63,7-19.34,1.16-38.74,1.09-58.07-.22-19.34-1.21-38.55-4.04-57.42-8.47-8.98-2.12-17.78-4.91-26.34-8.34-8.31-3.46-16.34-7.57-22.68-13.53-3.11-3-5.84-6.54-6.85-10.72-.53-2.05-.64-4.2-.3-6.29l.37-1.53c.06-.26,.11-.51,.19-.76l.29-.73,.59-1.44c.23-.46,.5-.91,.75-1.36,2.12-3.46,4.89-6.48,8.15-8.9,3.1-2.38,6.41-4.49,9.88-6.3,6.59-3.38,13.45-6.2,20.52-8.43,6.78-2.2,13.4-3.92,19.76-5.36s12.48-2.58,18.28-3.49,11.3-1.65,16.44-2.25c10.3-1.15,19.21-1.76,26.49-2.11s12.95-.44,16.79-.47h5.85Z"/><path class="l" d="M130.97,176.87s-.57,.13-1.68,.35-2.77,.54-4.94,1c-4.34,.9-10.73,2.29-18.84,4.51-9.86,2.64-19.5,6.05-28.82,10.21-2.71,1.24-5.49,2.61-8.26,4.18-2.87,1.6-5.64,3.38-8.29,5.32-2.8,2.04-5.37,4.39-7.65,7-2.43,2.74-4.2,5.99-5.19,9.52-.96,3.72-.67,7.65,.83,11.19,1.61,3.68,3.96,6.98,6.92,9.69,5.92,5.67,13.43,10,21.42,13.67,16.11,7.32,34.5,12.23,54,15.89,20.48,3.71,41.2,5.99,62,6.84,22.34,1,44.71,.61,67-1.19,22.86-1.91,45.11-5.27,66.05-10.77,10.29-2.63,20.35-6.08,30.08-10.32,4.67-2.06,9.18-4.47,13.49-7.2,4.26-2.65,8.12-5.9,11.45-9.66,3.19-3.73,5.54-8.3,5.68-13.12,.02-.6,0-1.2-.06-1.79-.02-.59-.09-1.19-.19-1.77l-.39-1.74c-.15-.57-.34-1.13-.57-1.68-.85-2.19-2.01-4.26-3.43-6.13-2.9-3.6-6.32-6.76-10.15-9.37-3.7-2.54-7.58-4.81-11.61-6.79-7.67-3.72-15.62-6.84-23.78-9.33-7.84-2.45-15.48-4.4-22.82-6-23.25-4.9-46.87-7.91-70.61-9-8.4-.43-14.94-.45-19.37-.56l-5-.11-1.71-.06h1.71l5,.06c4.43,.08,11,.06,19.38,.47,23.76,1.01,47.4,3.97,70.68,8.85,7.35,1.62,15,3.55,22.86,6,8.18,2.49,16.16,5.61,23.85,9.34,4.05,1.96,7.96,4.21,11.68,6.74,3.86,2.63,7.31,5.82,10.25,9.45,1.45,1.91,2.63,4.01,3.5,6.25,.24,.56,.43,1.13,.58,1.72l.41,1.78c.11,.6,.17,1.21,.19,1.82,.07,.61,.09,1.22,.07,1.83-.1,2.48-.69,4.91-1.74,7.16-1.03,2.26-2.38,4.37-4,6.26-3.36,3.8-7.25,7.09-11.56,9.76-4.36,2.77-8.92,5.21-13.65,7.3-9.76,4.26-19.84,7.73-30.15,10.37-21,5.51-43.25,8.88-66.14,10.79-22.29,1.8-44.66,2.19-67,1.18-20.8-.86-41.52-3.16-62-6.87-19.55-3.69-38-8.62-54.12-16-8-3.73-15.55-8.05-21.52-13.79-2.99-2.75-5.37-6.1-7-9.82-1.52-3.62-1.81-7.64-.82-11.44,1-3.57,2.8-6.87,5.27-9.64,2.3-2.65,4.89-5.02,7.73-7.08,2.66-1.95,5.44-3.72,8.33-5.32,2.78-1.57,5.57-2.94,8.29-4.18,9.36-4.14,19.03-7.53,28.93-10.13,8.13-2.19,14.53-3.55,18.88-4.42s6.55-1.22,6.55-1.22Z"/><path class="l" d="M166.03,327.76l-5,.79c-3.27,.52-8.08,1.35-14.23,2.69-7.46,1.61-14.8,3.68-22,6.21-4.49,1.6-8.87,3.5-13.1,5.7-2.3,1.2-4.52,2.55-6.64,4.06-2.25,1.56-4.3,3.39-6.11,5.44-.93,1.07-1.74,2.24-2.42,3.48-.7,1.25-1.2,2.6-1.49,4-.05,.36-.14,.72-.17,1.09l-.07,1.1c0,.73,.1,1.47,.16,2.21,.15,.73,.35,1.46,.58,2.17l.42,1.05,.21,.53,.28,.49c1.53,2.71,3.57,5.11,6,7.07,2.5,2.06,5.2,3.88,8.06,5.41,6.02,3.22,12.33,5.85,18.85,7.87,6.89,2.18,13.91,3.97,21,5.37,15.26,2.99,30.72,4.84,46.26,5.53,16.67,.82,33.37,.53,50-.87,17.08-1.48,33.7-4.09,49.27-8.49,7.65-2.1,15.09-4.94,22.2-8.46,3.42-1.74,6.66-3.83,9.65-6.23,.76-.57,1.41-1.27,2.11-1.9s1.27-1.38,1.91-2.06c1.18-1.43,2.14-3.03,2.84-4.75,1.39-3.41,1.23-7.26-.44-10.55-1.71-3.12-4.05-5.85-6.88-8-5.51-4.38-11.77-7.33-17.88-9.78-5.93-2.33-12.01-4.27-18.19-5.83-5.94-1.53-11.71-2.74-17.24-3.71-17.51-2.99-35.23-4.61-53-4.85l-19.53-.1s6.95-.09,19.53,0c17.76,.19,35.49,1.78,53,4.75,5.55,1,11.32,2.17,17.27,3.7,6.21,1.57,12.32,3.53,18.28,5.87,6.12,2.45,12.4,5.4,17.95,9.81,2.88,2.18,5.26,4.94,7,8.11,1.7,3.36,1.87,7.28,.45,10.77-.71,1.75-1.68,3.37-2.88,4.83-.65,.69-1.24,1.44-1.94,2.09s-1.35,1.34-2.12,1.91c-3.01,2.42-6.26,4.53-9.71,6.28-7.13,3.54-14.58,6.38-22.25,8.49-16.14,4.37-32.65,7.22-49.32,8.5-16.65,1.4-33.37,1.69-50.06,.87-15.55-.7-31.02-2.55-46.29-5.55-7.09-1.41-14.1-3.21-21-5.4-6.54-2.02-12.87-4.66-18.9-7.9-2.87-1.55-5.58-3.37-8.09-5.45-2.46-1.98-4.51-4.4-6.06-7.15l-.29-.5-.21-.54-.43-1.06c-.27-.72-.38-1.48-.58-2.21s-.16-1.51-.16-2.26l.07-1.12c0-.37,.12-.73,.18-1.1,.28-1.44,.79-2.83,1.51-4.11,.69-1.25,1.51-2.43,2.45-3.51,1.82-2.06,3.89-3.9,6.15-5.47,2.13-1.51,4.36-2.87,6.68-4.07,4.2-2.2,8.55-4.11,13.02-5.71,7.22-2.52,14.59-4.58,22.07-6.17,6.15-1.32,11-2.13,14.24-2.63s5.03-.75,5.03-.75Z"/><path class="l" d="M296.61,419.23c-.05-1.26-.33-2.49-.83-3.65-.93-2.29-3.42-5.14-7.33-7.72-7.85-5.17-21-9.51-37.52-12.17-9.02-1.44-18.11-2.33-27.24-2.67-10.49-.44-20.99-.24-31.45,.58-5.53,.43-11.18,1.07-16.91,2-5.85,.9-11.65,2.13-17.36,3.67-2.91,.78-5.82,1.69-8.69,2.74-2.91,1.04-5.74,2.28-8.49,3.7-2.79,1.42-5.38,3.21-7.69,5.33-2.27,2.12-4.12,5-4.17,8.2s1.89,6.08,4.16,8.21c2.28,2.11,4.84,3.89,7.6,5.31,2.74,1.42,5.58,2.66,8.49,3.7,2.87,1.06,5.78,2,8.69,2.75,5.72,1.54,11.52,2.77,17.37,3.67,5.73,.91,11.38,1.55,16.91,2,10.47,.83,20.97,1.02,31.46,.58,9.15-.35,18.28-1.25,27.32-2.7,16.54-2.66,29.67-7,37.53-12.17,3.91-2.58,6.39-5.43,7.32-7.72,.5-1.15,.78-2.39,.83-3.64,0,.15,0,.4-.07,.95-.02,.39-.09,.78-.21,1.16-.12,.53-.29,1.05-.52,1.54-.92,2.31-3.4,5.18-7.31,7.78-7.86,5.2-21,9.57-37.55,12.25-9.04,1.44-18.15,2.34-27.3,2.7-10.5,.44-21.01,.26-31.48-.56-5.53-.44-11.18-1.07-16.92-2-5.86-.89-11.67-2.11-17.39-3.66-2.92-.78-5.83-1.69-8.71-2.75-2.92-1.05-5.76-2.29-8.52-3.71-2.81-1.43-5.41-3.23-7.74-5.36-1.17-1.09-2.16-2.36-2.94-3.75-1.69-2.84-1.69-6.38,0-9.22,.8-1.39,1.81-2.66,3-3.74,2.33-2.13,4.93-3.93,7.74-5.36,2.75-1.42,5.6-2.66,8.51-3.71,2.89-1.06,5.8-2,8.72-2.75,5.72-1.54,11.52-2.76,17.38-3.66,5.74-.91,11.39-1.55,16.92-2,10.47-.82,20.98-1.01,31.48-.56,9.15,.35,18.26,1.25,27.3,2.69,16.54,2.68,29.69,7.05,37.55,12.25,3.91,2.6,6.39,5.47,7.31,7.78,.23,.49,.4,1.01,.52,1.54,.12,.38,.19,.77,.21,1.16,0,.58,.01,.84,.02,.99Z"/><path class="l" d="M75.69,264.13c0,1.76-1.44,3.19-3.2,3.18-1.76,0-3.19-1.44-3.18-3.2,0-1.76,1.43-3.18,3.19-3.18s3.19,1.43,3.19,3.19h0Z"/><circle class="l" cx="361.21" cy="266.29" r="3.19"/><path class="l" d="M234.19,383.93c0,1.77-1.42,3.2-3.19,3.21-1.77,0-3.2-1.42-3.21-3.19,0-1.77,1.42-3.2,3.19-3.21,0,0,.01,0,.02,0,1.76,0,3.19,1.43,3.19,3.19h0Z"/><path class="l" d="M137.24,301.89c0,.88-.72,1.6-1.6,1.6-.88,0-1.6-.72-1.6-1.6s.72-1.6,1.6-1.6,1.6,.72,1.6,1.6h0Z"/><path class="l" d="M335.75,340.57c0,.88-.72,1.6-1.6,1.6-.88,0-1.6-.72-1.6-1.6,0-.88,.72-1.6,1.6-1.6h0c.88,0,1.59,.72,1.59,1.6Z"/><path class="l" d="M209.69,414.4c0,.88-.72,1.6-1.6,1.6-.88,0-1.6-.72-1.6-1.6,0-.88,.72-1.6,1.6-1.6h0c.88,0,1.59,.72,1.59,1.6Z"/><circle class="l" cx="126.41" cy="134.93" r=".8"/></g><g id="f"><path class="l" d="M270.34,257.76c-38.77,10.26-76.14,9.48-116.87,0l-4.78-74.48c42.09,8.19,84.34,7.15,121.63-1.76l.02,76.24Z"/><g class="j"><path class="g" d="M270.34,257.76c-38.77,10.26-76.14,9.48-116.87,0l-4.78-74.48c42.09,8.19,84.34,7.15,121.63-1.76l.02,76.24Z"/></g><path class="l" d="M264.33,246.41c-.08,.05-.16,.09-.25,.12l-.73,.31c-.65,.26-1.59,.68-2.84,1.13-3.52,1.31-7.1,2.43-10.73,3.36-12.02,3.02-24.39,4.43-36.78,4.2-12.38-.25-24.71-1.57-36.86-3.94-4.67-.89-8.42-1.71-11-2.31-1.29-.29-2.29-.54-3-.71l-.77-.2c-.17-.05-.26-.08-.25-.09h.27l.78,.15,3,.61c2.59,.54,6.36,1.31,11,2.14,12.14,2.27,24.45,3.53,36.8,3.79,12.35,.23,24.68-1.11,36.69-4,4.59-1.16,8.25-2.32,10.75-3.21,1.26-.41,2.21-.8,2.87-1l.75-.26c.09-.05,.19-.08,.3-.09Z"/><path class="l" d="M207.36,249.44c-4.91,1.33-10.11,1.16-14.92-.5v-26.5c4.92-1,10-1,14.92,0v27Z"/><path class="l" d="M231.46,247.87c0-.07,0-.14,0-.21v-.57c0-.54,0-1.28-.07-2.22,0-1.95-.09-4.74-.16-8.23-.1-7-.25-16.87-.42-28.28l.2,.24c-5.1-1-10.35-1-15.45,0l.21-.25v.52c.16,15.66,.31,29.81,.41,39.91l-.15-.18c2.14,.47,4.32,.73,6.51,.8,1.65,.03,3.29-.11,4.91-.41,1.02-.2,2.02-.46,3-.79l.75-.26c.09-.04,.18-.07,.28-.08l-.24,.11-.76,.33c-.98,.37-1.98,.67-3,.89-1.63,.34-3.29,.5-4.95,.49-2.21-.03-4.42-.27-6.58-.72h-.14v-.2c-.15-10.1-.35-24.24-.57-39.9v-.75h.22c5.16-1.02,10.48-1.02,15.64,0l.2,.05v.2c.09,11.46,.16,21.35,.22,28.41v10.92c0,.15-.05,.18-.06,.18Z"/><path class="l" d="M254.4,244.76c-4,2.16-9.25,2.45-14.93,2.12v-43.78c4.91-1.18,10.02-1.18,14.93,0v41.66Z"/><path class="l" d="M183.69,247.28s0-.41-.05-1.13,0-1.79-.06-3.06c0-2.66-.07-6.35-.11-10.74l.14,.21c-4.56-1.85-9.46-2.66-14.37-2.39h0l.24-.26v14.93l-.13-.2c1.86,.75,3.79,1.3,5.76,1.64,1.77,.32,3.32,.5,4.61,.63l3,.25c.36,.02,.71,.06,1.06,.12-.35,.02-.71,.02-1.06,0-.7,0-1.71,0-3-.13s-2.86-.24-4.64-.53c-2.01-.3-3.99-.84-5.88-1.59l-.13-.06v-15.32h.26c4.99-.28,9.97,.57,14.58,2.49l.15,.05v.16c0,4.45-.09,8.19-.12,10.89,0,1.25,0,2.25-.06,3-.03,.35-.1,.7-.19,1.04Z"/><path class="l" d="M190.69,208.55c-.97,.15-1.94,.22-2.92,.18-1.81,0-4.31,0-7.06-.17s-5.23-.42-7-.66c-.97-.08-1.94-.25-2.88-.52,.97-.02,1.95,.03,2.91,.16,1.8,.14,4.28,.34,7,.5s5.23,.26,7,.32c.99-.01,1.97,.05,2.95,.19Z"/><path class="l" d="M188.46,211.81c-.85,.09-1.71,.09-2.56,0-1.58-.08-3.76-.22-6.17-.4s-4.59-.38-6.16-.55c-.85-.04-1.7-.17-2.53-.38,.85-.09,1.71-.09,2.56,0,1.59,.08,3.76,.22,6.17,.4s4.58,.38,6.15,.55c.86,.04,1.71,.17,2.54,.38Z"/><path class="l" d="M193.92,216.08v-.93c0-.59,.05-1.5,.1-2.58,.1-2.26,.25-5.44,.44-9.35l.19,.21c-9.23,.08-18.46-.43-27.63-1.54l.29-.24h0v.82l-.05,.84c0,.56-.06,1.12-.1,1.67-.06,1.11-.12,2.2-.19,3.27-.13,2.15-.25,4.23-.37,6.22l-.21-.26c8,1,14.89,1.4,19.78,1.59l5.73,.17,1.5,.05h.55c-.17,.01-.33,.01-.5,0-.34,0-.88,0-1.55,.05h-5.74c-4.9-.1-11.82-.46-19.83-1.41h-.23v-.24c.11-2,.23-4.07,.35-6.22,.06-1.07,.12-2.16,.19-3.27l.09-1.67v-1.66h0l.29-.24c9.18,1.11,18.42,1.67,27.67,1.69h.2v.2c-.27,3.94-.49,7.16-.65,9.44-.08,1.06-.15,1.91-.2,2.53-.01,.29-.05,.58-.12,.86Z"/><path class="l" d="M197.33,221.69c-.76-.8-1.41-1.69-1.93-2.67-.66-.89-1.16-1.88-1.48-2.94,.76,.8,1.41,1.69,1.93,2.67,.66,.89,1.16,1.88,1.48,2.94Z"/><path class="l" d="M35.33,124.76l12.67,76.68s19.35,36.22,70.75,44.38l-8.29-68.44s-47.54-14.72-75.13-52.62Z"/><g class="j"><path class="g" d="M35.33,124.76l12.67,76.68s19.35,36.22,70.75,44.38l-8.29-68.44s-47.54-14.72-75.13-52.62Z"/></g><path class="l" d="M112.12,240.34l-.32-.08-1-.27-3.62-1.11c-1.57-.5-3.52-1-5.69-1.9l-3.49-1.33c-1.25-.47-2.56-1-3.89-1.6-2.67-1.22-5.64-2.48-8.66-4.18s-6.24-3.53-9.52-5.62c-7.07-4.64-13.5-10.21-19.1-16.55-2.63-2.95-4.93-6.18-6.89-9.61h0l-5.8-37.5c-.7-4.68-1.27-8.43-1.66-11.06l-.42-3-.1-.77c-.01-.09-.01-.18,0-.27,.03,.08,.05,.17,.06,.26l.15,.77,.51,3c.43,2.62,1,6.37,1.81,11,1.5,9.42,3.6,22.54,6,37.47v-.07c1.94,3.39,4.23,6.57,6.82,9.5,5.58,6.31,11.97,11.85,19,16.49,3.26,2.1,6.37,4.07,9.45,5.64s5.95,3,8.61,4.22c1.32,.65,2.63,1.16,3.86,1.63l3.46,1.36c2.15,.91,4.09,1.45,5.64,2l3.59,1.2,.93,.32c.09,.01,.18,.03,.27,.06Z"/><path class="l" d="M107.6,218.08s0,.06-.17,.16l-.55,.44-2.13,1.66-8.06,6.19-.12,.1-.1-.14c-2.72-3.75-6.07-8.39-9.87-13.66l.3,.05-7.57,5.4-.25,.18-.11-.3c-3-8-6.27-17-9.76-26.47l-1.4-3.81h.47l-6.16,12.24-.27,.53-.19-.56c-5.37-15.46-9.92-28.6-12.88-37.13h.27c-.81,3.42-1.45,6.11-1.89,8-.22,.9-.4,1.6-.52,2.1l-.14,.54c-.01,.06-.04,.12-.07,.18v-.19c0-.14,.06-.32,.1-.54l.45-2.12c.41-1.89,1-4.59,1.76-8l.11-.48,.17,.47c3,8.51,7.63,21.62,13.08,37.05h-.46l6.15-12.24,.27-.54,.21,.56,1.4,3.81c3.47,9.48,6.77,18.47,9.71,26.49l-.36-.11,7.6-5.36,.17-.12,.13,.17,9.77,13.68h-.23l8.17-6.07,2.18-1.6,.57-.4,.22-.16Z"/><path class="l" d="M105.83,181.31c-.37-.04-.73-.12-1.08-.24-.68-.19-1.67-.49-2.87-.89-3.12-1.04-6.19-2.25-9.19-3.62-3.02-1.36-5.97-2.87-8.83-4.53-1.09-.64-2-1.18-2.56-1.57-.32-.18-.62-.4-.89-.65,.35,.12,.69,.28,1,.48l2.64,1.42c2.23,1.19,5.34,2.79,8.86,4.38s6.77,2.86,9.14,3.75c1.11,.4,2,.75,2.81,1,.34,.11,.67,.27,.97,.47Z"/><path class="l" d="M107.87,184.49c-.84-.05-1.67-.19-2.48-.44-1.97-.48-3.92-1.06-5.83-1.74-1.91-.68-3.78-1.47-5.61-2.35-.78-.32-1.51-.74-2.19-1.23,.81,.23,1.6,.53,2.35,.9,1.43,.59,3.41,1.39,5.63,2.19s4.26,1.43,5.75,1.88c.82,.19,1.61,.45,2.38,.79Z"/><path class="l" d="M87.62,212.85c0,.64-.39,1.15-.87,1.15s-.86-.51-.86-1.15,.39-1.15,.86-1.15,.87,.52,.87,1.15Z"/><ellipse class="l" cx="67.95" cy="188.61" rx=".86" ry="1.15"/><path class="l" d="M49.82,163.32c0,.63-.39,1.15-.86,1.15s-.86-.52-.86-1.15,.38-1.15,.86-1.15,.86,.52,.86,1.15Z"/><path class="l" d="M370.69,138.4l-6.35,77.9s-18.57,33.31-69.65,34.58l6.31-78.43s44.57-1.81,69.69-34.05Z"/><path class="l" d="M369.69,134.34c-1.66-5.39-5.7-13.08-15.3-14.68l-11.32,104.78s21.31-4.25,21.88-15.93c.05-1,4.31-53.09,5.38-66,.32-2.74,.1-5.51-.64-8.17Z"/><g class="j"><path class="g" d="M370.69,138.4l-6.35,77.9s-18.57,33.31-69.65,34.58l6.31-78.43s44.57-1.81,69.69-34.05Z"/></g><path class="l" d="M369.14,158.26c-5.11,7.42-7.94,16.18-8.13,25.19-.05,2.59,.1,5.26-.89,7.65s-3.55,4.39-6,3.71-3.77-3.8-6.05-5.24c-2.14-1.2-4.76-1.14-6.85,.15-2.04,1.31-3.61,3.22-4.5,5.47-1.85,4.27-2,9.09-3.34,13.54s-4.72,8.94-9.38,9.14c-1.7,.07-3.38-.44-5.08-.39-3.59,.11-6.71,2.78-8.38,6s-2.18,6.83-2.66,10.39c0,0,27.22,2.6,57.77-33.48l3.49-42.13Z"/><path class="l" d="M325.87,205.51c0,1-.48,1.75-1.07,1.75s-1.06-.78-1.06-1.75,.47-1.75,1.06-1.75,1.07,.79,1.07,1.75Z"/><path class="l" d="M338.69,173.13c0,1-.48,1.75-1.07,1.75s-1.06-.79-1.06-1.75,.47-1.75,1.06-1.75,1.07,.78,1.07,1.75Z"/><path class="l" d="M368.53,162.02c-.04,.15-.1,.3-.17,.44l-.58,1.27c-.54,1.13-1.29,2.73-2.24,4.75l-8.12,16.91-.11,.23-.22-.14-19.25-12.18,.38-.12c-.25,.62-.53,1.29-.8,2l-12.43,30.41-.09,.21-.19-.11c-4.8-2.7-8.72-4.87-11.44-6.35-1.37-.74-2.43-1.31-3.16-1.68l-.83-.4-.29-.13c1.53,.51,2.99,1.18,4.38,2,2.76,1.42,6.7,3.54,11.53,6.2l-.28,.1,12.32-30.49c.27-.67,.55-1.34,.8-2l.12-.29,.26,.17,19.22,12.24-.33,.09c3.41-6.93,6.27-12.72,8.29-16.82l2.39-4.67,.64-1.23c.06-.14,.12-.28,.2-.41Z"/></g></svg>